<svg xmlns="http://www.w3.org/2000/svg" viewBox="0 0 57 57" shape-rendering="crispEdges" xmlns:c2pa="http://c2pa.org/manifest"><metadata><c2pa:manifest>AAAWgmp1bWIAAAAeanVtZGMycGEAEQAQgAAAqgA4m3EDYzJwYQAAABZcanVtYgAAAEdqdW1kYzJtYQARABCAAACqADibcQN1cm46YzJwYTo3ZDllZTU2My04NDAxLTQ1MjctYWZhYS1kZWNlYWQwYjhiYjIAAAADl2p1bWIAAAApanVtZGMyYXMAEQAQgAAAqgA4m3EDYzJwYS5hc3NlcnRpb25zAAAAALxqdW1iAAAARGp1bWRjYm9yABEAEIAAAKoAOJtxE2MycGEuaW5ncmVkaWVudC52MwAAAAAYYzJzaBbGJdFRuDS/gGV4t/eL3QQAAABwY2JvcqNpZGM6Zm9ybWF0bWltYWdlL3N2Zyt4bWxqaW5zdGFuY2VJRHgseG1wOmlpZDo0ZDEyMmIwMS1jMzY0LTQ3Y2YtYjkxOC1hZDllMmQ4ZjI2OWNscmVsYXRpb25zaGlwaHBhcmVudE9mAAAB4mp1bWIAAABBanVtZGNib3IAEQAQgAAAqgA4m3ETYzJwYS5hY3Rpb25zLnYyAAAAABhjMnNoOu0IwTX+USuYFx0msmGxrAAAAZljYm9yomdhY3Rpb25zgqJmYWN0aW9ua2MycGEub3BlbmVkanBhcmFtZXRlcnOha2luZ3JlZGllbnRzgaJjdXJseC1zZWxmI2p1bWJmPWMycGEuYXNzZXJ0aW9ucy9jMnBhLmluZ3JlZGllbnQudjNkaGFzaFgg6EdsJE2R5foAOumH8OmpN9RQW5LnFQPtvCApP85XZC6kZmFjdGlvbngdY29tLmFudGhyb3BpYy5jbGF1ZGUucHJvdmlkZWRqcGFyYW1ldGVyc6F4H2NvbS5hbnRocm9waWMub3JpZ2luLWNvbmZpZGVuY2VndW5rbm93bmtkZXNjcmlwdGlvbnhmQ2xhdWRlIHByb3ZpZGVkIHRoaXMgZmlsZSBhdCB0aGUgcmVxdWVzdCBvZiBhIHVzZXIgYW5kIG1heSBoYXZlIGNyZWF0ZWQgb3IgbW9kaWZpZWQgdGhlIGZpbGUgY29udGVudHMubXNvZnR3YXJlQWdlbnShZG5hbWVmQ2xhdWRlcmFsbEFjdGlvbnNJbmNsdWRlZPUAAADIanVtYgAAAEBqdW1kY2JvcgARABCAAACqADibcRNjMnBhLmhhc2guZGF0YQAAAAAYYzJzaO0Ur5ReUmvNO0NEYTJ38SQAAACAY2JvcqVjYWxnZnNoYTI1NmNwYWRNAAAAAAAAAAAAAAAAAGRoYXNoWCDkz3gJCVJGDBVinbD/bZCAWj2R42hxbR1nmazOcYyt0mRuYW1lbmp1bWJmIG1hbmlmZXN0amV4Y2x1c2lvbnOBomVzdGFydBiYZmxlbmd0aBkeBAAAAj5qdW1iAAAAJ2p1bWRjMmNsABEAEIAAAKoAOJtxA2MycGEuY2xhaW0udjIAAAACD2Nib3KlY2FsZ2ZzaGEyNTZpc2lnbmF0dXJleE1zZWxmI2p1bWJmPS9jMnBhL3VybjpjMnBhOjdkOWVlNTYzLTg0MDEtNDUyNy1hZmFhLWRlY2VhZDBiOGJiMi9jMnBhLnNpZ25hdHVyZWppbnN0YW5jZUlEeCx4bXA6aWlkOjhjMTE4MjUzLTVkNzgtNGMwMy1hYTJhLTA2OTU5M2U2YjQ1ZnJjcmVhdGVkX2Fzc2VydGlvbnODomN1cmx4LXNlbGYjanVtYmY9YzJwYS5hc3NlcnRpb25zL2MycGEuaW5ncmVkaWVudC52M2RoYXNoWCDoR2wkTZHl+gA66Yfw6ak31FBbkucVA+28ICk/zldkLqJjdXJseCpzZWxmI2p1bWJmPWMycGEuYXNzZXJ0aW9ucy9jMnBhLmFjdGlvbnMudjJkaGFzaFggeOzvLH7212l/ZW9gFENEAy5KPr4+eB00Z/rUum/XgsqiY3VybHgpc2VsZiNqdW1iZj1jMnBhLmFzc2VydGlvbnMvYzJwYS5oYXNoLmRhdGFkaGFzaFggo+gdsbjXz+B7rN2I0zjGFR1nQRglzCH+D355MibF4xd0Y2xhaW1fZ2VuZXJhdG9yX2luZm+jZG5hbWVvQW50aHJvcGljIEZpbGVzZ3ZlcnNpb25lMS4wLjBrc3BlY1ZlcnNpb25lMi40LjAAABA4anVtYgAAAChqdW1kYzJjcwARABCAAACqADibcQNjMnBhLnNpZ25hdHVyZQAAABAIY2JvctKEWQISogEmGCFZAgowggIGMIIBjaADAgECAhRA5aAK7sI50L64g/oGQgU9Z1UTADAKBggqhkjOPQQDAzBJMRcwFQYDVQQKEw5BbnRocm9waWMsIFBCQzEuMCwGA1UEAxMlQW50aHJvcGljIENvbnRlbnQgQ3JlZGVudGlhbHMgUm9vdCBDQTAeFw0yNjA4MDcxODQzNTZaFw0yODA4MDYxOTQzNTZaMEQxFzAVBgNVBAoTDkFudGhyb3BpYywgUEJDMSkwJwYDVQQDEyBBbnRocm9waWMgQ2xhdWRlIENvbnRlbnQgU2lnbmluZzBZMBMGByqGSM49AgEGCCqGSM49AwEHA0IABJh6CmvLUBgFFNU0vUKlOVtE6djd17L5SuwX0LemFisBM3dkd/3cyjxFA3Qo5S46fX0/ihY0VZ7mfb9KF703t5OjWDBWMA4GA1UdDwEB/wQEAwIHgDAVBgNVHSUEDjAMBgorBgEEAYPoXgIBMAwGA1UdEwEB/wQCMAAwHwYDVR0jBBgwFoAUzlHiBIFOZFsj+OPEz5o+nMHXXMIwCgYIKoZIzj0EAwMDZwAwZAIwMXMdFJ4BetLLVY7ORuE9noqbbAZOZn/aArXyTwFAZfKrPzxF2vPoJNf1+UCdg1XGAjBwX1zd9WGqYkqmL5SFqw1QySjr1zJfpJM9+1rdDwSPLMOPOjKuiXjoU/pUUeG9RwmhY3BhZFkNngAAAAAAAAAAAAAAAAAAAAAAAAAAAAAAAAAAAAAAAAAAAAAAAAAAAAAAAAAAAAAAAAAAAAAAAAAAAAAAAAAAAAAAAAAAAAAAAAAAAAAAAAAAAAAAAAAAAAAAAAAAAAAAAAAAAAAAAAAAAAAAAAAAAAAAAAAAAAAAAAAAAAAAAAAAAAAAAAAAAAAAAAAAAAAAAAAAAAAAAAAAAAAAAAAAAAAAAAAAAAAAAAAAAAAAAAAAAAAAAAAAAAAAAAAAAAAAAAAAAAAAAAAAAAAAAAAAAAAAAAAAAAAAAAAAAAAAAAAAAAAAAAAAAAAAAAAAAAAAAAAAAAAAAAAAAAAAAAAAAAAAAAAAAAAAAAAAAAAAAAAAAAAAAAAAAAAAAAAAAAAAAAAAAAAAAAAAAAAAAAAAAAAAAAAAAAAAAAAAAAAAAAAAAAAAAAAAAAAAAAAAAAAAAAAAAAAAAAAAAAAAAAAAAAAAAAAAAAAAAAAAAAAAAAAAAAAAAAAAAAAAAAAAAAAAAAAAAAAAAAAAAAAAAAAAAAAAAAAAAAAAAAAAAAAAAAAAAAAAAAAAAAAAAAAAAAAAAAAAAAAAAAAAAAAAAAAAAAAAAAAAAAAAAAAAAAAAAAAAAAAAAAAAAAAAAAAAAAAAAAAAAAAAAAAAAAAAAAAAAAAAAAAAAAAAAAAAAAAAAAAAAAAAAAAAAAAAAAAAAAAAAAAAAAAAAAAAAAAAAAAAAAAAAAAAAAAAAAAAAAAAAAAAAAAAAAAAAAAAAAAAAAAAAAAAAAAAAAAAAAAAAAAAAAAAAAAAAAAAAAAAAAAAAAAAAAAAAAAAAAAAAAAAAAAAAAAAAAAAAAAAAAAAAAAAAAAAAAAAAAAAAAAAAAAAAAAAAAAAAAAAAAAAAAAAAAAAAAAAAAAAAAAAAAAAAAAAAAAAAAAAAAAAAAAAAAAAAAAAAAAAAAAAAAAAAAAAAAAAAAAAAAAAAAAAAAAAAAAAAAAAAAAAAAAAAAAAAAAAAAAAAAAAAAAAAAAAAAAAAAAAAAAAAAAAAAAAAAAAAAAAAAAAAAAAAAAAAAAAAAAAAAAAAAAAAAAAAAAAAAAAAAAAAAAAAAAAAAAAAAAAAAAAAAAAAAAAAAAAAAAAAAAAAAAAAAAAAAAAAAAAAAAAAAAAAAAAAAAAAAAAAAAAAAAAAAAAAAAAAAAAAAAAAAAAAAAAAAAAAAAAAAAAAAAAAAAAAAAAAAAAAAAAAAAAAAAAAAAAAAAAAAAAAAAAAAAAAAAAAAAAAAAAAAAAAAAAAAAAAAAAAAAAAAAAAAAAAAAAAAAAAAAAAAAAAAAAAAAAAAAAAAAAAAAAAAAAAAAAAAAAAAAAAAAAAAAAAAAAAAAAAAAAAAAAAAAAAAAAAAAAAAAAAAAAAAAAAAAAAAAAAAAAAAAAAAAAAAAAAAAAAAAAAAAAAAAAAAAAAAAAAAAAAAAAAAAAAAAAAAAAAAAAAAAAAAAAAAAAAAAAAAAAAAAAAAAAAAAAAAAAAAAAAAAAAAAAAAAAAAAAAAAAAAAAAAAAAAAAAAAAAAAAAAAAAAAAAAAAAAAAAAAAAAAAAAAAAAAAAAAAAAAAAAAAAAAAAAAAAAAAAAAAAAAAAAAAAAAAAAAAAAAAAAAAAAAAAAAAAAAAAAAAAAAAAAAAAAAAAAAAAAAAAAAAAAAAAAAAAAAAAAAAAAAAAAAAAAAAAAAAAAAAAAAAAAAAAAAAAAAAAAAAAAAAAAAAAAAAAAAAAAAAAAAAAAAAAAAAAAAAAAAAAAAAAAAAAAAAAAAAAAAAAAAAAAAAAAAAAAAAAAAAAAAAAAAAAAAAAAAAAAAAAAAAAAAAAAAAAAAAAAAAAAAAAAAAAAAAAAAAAAAAAAAAAAAAAAAAAAAAAAAAAAAAAAAAAAAAAAAAAAAAAAAAAAAAAAAAAAAAAAAAAAAAAAAAAAAAAAAAAAAAAAAAAAAAAAAAAAAAAAAAAAAAAAAAAAAAAAAAAAAAAAAAAAAAAAAAAAAAAAAAAAAAAAAAAAAAAAAAAAAAAAAAAAAAAAAAAAAAAAAAAAAAAAAAAAAAAAAAAAAAAAAAAAAAAAAAAAAAAAAAAAAAAAAAAAAAAAAAAAAAAAAAAAAAAAAAAAAAAAAAAAAAAAAAAAAAAAAAAAAAAAAAAAAAAAAAAAAAAAAAAAAAAAAAAAAAAAAAAAAAAAAAAAAAAAAAAAAAAAAAAAAAAAAAAAAAAAAAAAAAAAAAAAAAAAAAAAAAAAAAAAAAAAAAAAAAAAAAAAAAAAAAAAAAAAAAAAAAAAAAAAAAAAAAAAAAAAAAAAAAAAAAAAAAAAAAAAAAAAAAAAAAAAAAAAAAAAAAAAAAAAAAAAAAAAAAAAAAAAAAAAAAAAAAAAAAAAAAAAAAAAAAAAAAAAAAAAAAAAAAAAAAAAAAAAAAAAAAAAAAAAAAAAAAAAAAAAAAAAAAAAAAAAAAAAAAAAAAAAAAAAAAAAAAAAAAAAAAAAAAAAAAAAAAAAAAAAAAAAAAAAAAAAAAAAAAAAAAAAAAAAAAAAAAAAAAAAAAAAAAAAAAAAAAAAAAAAAAAAAAAAAAAAAAAAAAAAAAAAAAAAAAAAAAAAAAAAAAAAAAAAAAAAAAAAAAAAAAAAAAAAAAAAAAAAAAAAAAAAAAAAAAAAAAAAAAAAAAAAAAAAAAAAAAAAAAAAAAAAAAAAAAAAAAAAAAAAAAAAAAAAAAAAAAAAAAAAAAAAAAAAAAAAAAAAAAAAAAAAAAAAAAAAAAAAAAAAAAAAAAAAAAAAAAAAAAAAAAAAAAAAAAAAAAAAAAAAAAAAAAAAAAAAAAAAAAAAAAAAAAAAAAAAAAAAAAAAAAAAAAAAAAAAAAAAAAAAAAAAAAAAAAAAAAAAAAAAAAAAAAAAAAAAAAAAAAAAAAAAAAAAAAAAAAAAAAAAAAAAAAAAAAAAAAAAAAAAAAAAAAAAAAAAAAAAAAAAAAAAAAAAAAAAAAAAAAAAAAAAAAAAAAAAAAAAAAAAAAAAAAAAAAAAAAAAAAAAAAAAAAAAAAAAAAAAAAAAAAAAAAAAAAAAAAAAAAAAAAAAAAAAAAAAAAAAAAAAAAAAAAAAAAAAAAAAAAAAAAAAAAAAAAAAAAAAAAAAAAAAAAAAAAAAAAAAAAAAAAAAAAAAAAAAAAAAAAAAAAAAAAAAAAAAAAAAAAAAAAAAAAAAAAAAAAAAAAAAAAAAAAAAAAAAAAAAAAAAAAAAAAAAAAAAAAAAAAAAAAAAAAAAAAAAAAAAAAAAAAAAAAAAAAAAAAAAAAAAAAAAAAAAAAAAAAAAAAAAAAAAAAAAAAAAAAAAAAAAAAAAAAAAAAAAAAAAAAAAAAAAAAAAAAAAAAAAAAAAAAAAAAAAAAAAAAAAAAAAAAAAAAAAAAAAAAAAAAAAAAAAAAAAAAAAAAAAAAAAAAAAAAAAAAAAAAAAAAAAAAAAAAAAAAAAAAAAAAAAAAAAAAAAAAAAAAAAAAAAAAAAAAAAAAAAAAAAAAAAAAAAAAAAAAAAAAAAAAAAAAAAAAAAAAAAAAAAAAAAAAAAAAAAAAAAAAAAAAAAAAAAAAAAAAAAAAAAAAAAAAAAAAAAAAAAAAAAAAAAAAAAAAAAAAAAAAAAAAAAAAAAAAAAAAAAAAAAAAAAAAAAAAAAAAAAAAAAAAAAAAAAAAAAAAAAAAAAAAAAAAAAAAAAAAAAAAAAAAAAAAAAAAAAAAAAAAAAAAAAAAAAAAAAAAAAAAAAAAAAAAAAAAAAAAAAAAAAAAAAAAAAAAAAAAAAAAAAAAAAAAAAAAAAAAAAAAAAAAAAAAAAAAAAAAAAAAAAAAAAAAAAAAAAAAAAAAAAAAAAAAAAAAAAAAAAAAAAAAAAAAAAAAAAAAAAAAAAAAAAAAAAAAAAAAAAAAAAAAAAAAAAAAAAAAAAAAAAAAAAAAAAAAAAAAAAAAAAAAAAAAAAAAAAAAAAAAAAAAAAAAAAAAAAAAAAAAAAAAAAAAAAAAAAAAAAAAAAAAAAAAAAAAAAAAAAAAAAAAAAAAAAAAAAAAAAAAAAAAAAAAAAAAAAAAAAAAAAAAAAAAAAAAAAAAAAAAAAAAAAAAAAAAAAAAAAAAAAAAAAAAAAAAAAAAAAAAAAAAAAAAAAAAAAAAAAAAAAAAAAAAAAAAAAAAAAAAAAAAAAAAAAAAAAAAAAAAAAAAAAAAAAAAAAAAAAAAAAAAAAAAAAAAAAAAAAAAAAAAAAAAAAAAAAAAAAAAAAAAAAAAAAAAAAAAAAAAAAAAAAAAAAAAAAAAAAAAAAAAAAAAAAAAAAAAAAAAAAAAAAAAAAAAAAAAAAAAAAAAAAAAAAAAAAAAAAAAAAAAAAAAAAAAAAAAAAAAAAAAAAAAAAAAAAAAAAAAAAAAAAAAAAAAAAAAAAAAAAAAAAAAAAAAAAAAAAAAAAAAAAAAAAAAAAAAAAAAAAAAAAAAAAAAAAAAAAAAAAAAAAAAAAAAAAAAAAAAAAAAAAAAAAAAAAAAAAAAAAAAAAAAAAAAAAAAAAAAAAAAAAAAAAAAAAAAAAAAAAAAAAAAAAAAAAAAAAAAAAAAAAAAAAAAAAAAAAAAAAAAAAAAAAAAAAAAAAAAAAAAAAAAAAAAAAAAAAAAAAAAAAAAAAAAAAAAAAAAAAAAAAAAAAAAAPZYQNHIMMiO8B1FakmmtoixO265ul63w5FpAj/GhzXmJbkKLvDSL1MRj3ti0xq4cBFnPiJv2We9UpJOFkVzSVwq/JY=</c2pa:manifest></metadata><path stroke="#26251f" d="M0 0.5h7m2 0h1m1 0h2m4 0h2m1 0h2m2 0h1m2 0h5m1 0h1m2 0h1m2 0h1m1 0h2m1 0h1m1 0h2m2 0h7M0 1.5h1m5 0h1m3 0h2m2 0h1m2 0h1m1 0h5m2 0h1m1 0h1m2 0h1m1 0h4m1 0h1m5 0h2m1 0h1m2 0h1m5 0h1M0 2.5h1m1 0h3m1 0h1m1 0h4m2 0h1m2 0h2m3 0h4m1 0h2m2 0h4m4 0h2m1 0h1m1 0h1m1 0h2m2 0h1m1 0h3m1 0h1M0 3.5h1m1 0h3m1 0h1m1 0h4m1 0h2m1 0h2m2 0h1m1 0h2m1 0h1m4 0h3m3 0h4m1 0h3m1 0h1m1 0h1m2 0h1m1 0h3m1 0h1M0 4.5h1m1 0h3m1 0h1m1 0h2m3 0h4m1 0h3m3 0h1m1 0h5m2 0h1m2 0h2m2 0h3m2 0h1m1 0h1m2 0h1m1 0h3m1 0h1M0 5.5h1m5 0h1m1 0h3m2 0h1m3 0h1m1 0h2m1 0h1m1 0h3m3 0h1m3 0h2m2 0h1m1 0h2m3 0h2m3 0h1m5 0h1M0 6.5h7m1 0h1m1 0h1m1 0h1m1 0h1m1 0h1m1 0h1m1 0h1m1 0h1m1 0h1m1 0h1m1 0h1m1 0h1m1 0h1m1 0h1m1 0h1m1 0h1m1 0h1m1 0h1m1 0h1m1 0h1m1 0h1m1 0h7M8 7.5h1m1 0h3m1 0h1m2 0h2m1 0h3m1 0h3m3 0h1m8 0h2m4 0h1m1 0h1M0 8.5h1m1 0h5m3 0h3m2 0h4m1 0h1m1 0h1m3 0h5m1 0h1m2 0h3m4 0h1m2 0h2m3 0h5M0 9.5h1m3 0h1m4 0h1m1 0h1m2 0h1m3 0h4m1 0h3m3 0h2m1 0h2m7 0h2m4 0h3m1 0h6M0 10.5h2m1 0h2m1 0h1m2 0h1m4 0h1m1 0h3m2 0h1m5 0h1m3 0h1m3 0h1m2 0h2m2 0h1m2 0h4m1 0h1m1 0h1m1 0h2M0 11.5h4m3 0h2m1 0h5m1 0h1m1 0h1m1 0h1m2 0h3m1 0h1m3 0h5m3 0h2m1 0h1m1 0h5m1 0h1m3 0h3M0 12.5h1m1 0h1m2 0h6m5 0h2m2 0h2m1 0h2m2 0h1m8 0h3m2 0h1m7 0h2m2 0h1m1 0h1M3 13.5h2m4 0h1m1 0h1m1 0h1m1 0h3m2 0h1m3 0h3m1 0h1m1 0h2m3 0h1m1 0h1m2 0h1m1 0h1m2 0h1m1 0h3m1 0h1m1 0h1M0 14.5h4m2 0h1m1 0h2m2 0h1m1 0h1m3 0h4m1 0h2m3 0h1m2 0h1m2 0h3m1 0h2m5 0h2m1 0h2m1 0h1m1 0h1m1 0h1M0 15.5h1m1 0h3m2 0h1m1 0h2m2 0h1m1 0h1m1 0h1m1 0h1m4 0h1m2 0h1m1 0h2m1 0h2m5 0h1m1 0h2m1 0h1m2 0h2m2 0h4M1 16.5h1m1 0h5m5 0h1m4 0h3m2 0h2m2 0h1m2 0h2m1 0h1m2 0h1m4 0h3m3 0h1m1 0h1m3 0h1m1 0h2M4 17.5h1m6 0h1m1 0h3m3 0h3m1 0h1m1 0h3m7 0h3m1 0h4m5 0h2m3 0h1m1 0h1M1 18.5h1m1 0h1m2 0h6m5 0h4m1 0h1m1 0h1m2 0h1m1 0h3m3 0h7m1 0h1m1 0h2m1 0h1m1 0h2m1 0h2m1 0h1M1 19.5h3m1 0h1m2 0h5m1 0h1m1 0h2m1 0h2m1 0h1m4 0h2m3 0h2m1 0h1m2 0h2m2 0h1m3 0h1m2 0h4m1 0h3M0 20.5h1m3 0h1m1 0h1m1 0h1m3 0h4m1 0h1m2 0h3m3 0h1m2 0h1m1 0h1m1 0h1m1 0h2m2 0h1m1 0h3m3 0h2m1 0h1m3 0h1m1 0h1M0 21.5h3m1 0h2m1 0h1m1 0h2m1 0h1m2 0h3m1 0h1m1 0h7m1 0h2m1 0h1m5 0h2m1 0h2m4 0h3m1 0h1m1 0h1m2 0h1M3 22.5h1m1 0h5m1 0h1m2 0h1m2 0h3m1 0h1m5 0h5m2 0h2m3 0h1m5 0h2m1 0h1m1 0h6M1 23.5h1m2 0h2m1 0h2m1 0h1m1 0h1m3 0h4m1 0h3m3 0h4m2 0h2m2 0h7m1 0h2m1 0h2m3 0h2m1 0h1M0 24.5h2m1 0h2m1 0h2m1 0h1m2 0h1m1 0h2m1 0h4m1 0h1m3 0h1m3 0h5m1 0h4m2 0h2m1 0h1m2 0h2M2 25.5h4m3 0h1m2 0h1m2 0h1m1 0h1m6 0h1m4 0h2m2 0h1m1 0h3m1 0h1m1 0h2m2 0h1m3 0h1m4 0h3M0 26.5h3m1 0h7m1 0h2m3 0h1m1 0h2m1 0h15m1 0h2m5 0h1m2 0h6M2 27.5h1m1 0h1m3 0h1m2 0h1m4 0h1m4 0h2m2 0h2m3 0h1m2 0h1m5 0h1m2 0h1m1 0h2m2 0h1m3 0h1m1 0h2M1 28.5h1m1 0h2m1 0h1m1 0h1m1 0h1m1 0h3m1 0h1m1 0h1m2 0h3m2 0h1m1 0h1m1 0h1m4 0h2m4 0h3m3 0h2m1 0h1m1 0h1M0 29.5h1m2 0h2m3 0h1m4 0h2m1 0h5m1 0h5m3 0h2m1 0h1m1 0h3m1 0h6m2 0h2m3 0h1m1 0h1m1 0h1M0 30.5h1m1 0h11m1 0h6m3 0h8m1 0h2m1 0h2m2 0h2m1 0h1m3 0h7m2 0h1M1 31.5h2m2 0h1m5 0h1m2 0h1m3 0h2m1 0h1m2 0h1m7 0h1m6 0h2m1 0h1m1 0h1m1 0h2m2 0h1m1 0h1m1 0h1m1 0h1M0 32.5h1m1 0h3m1 0h1m2 0h1m1 0h1m1 0h1m3 0h1m1 0h1m1 0h2m1 0h2m1 0h2m1 0h2m1 0h1m1 0h4m2 0h1m6 0h2m1 0h3m1 0h2M0 33.5h4m1 0h1m1 0h1m1 0h1m1 0h2m3 0h2m4 0h2m1 0h1m3 0h2m5 0h2m3 0h1m2 0h2m1 0h1m1 0h2m2 0h3M0 34.5h1m4 0h2m1 0h1m1 0h1m1 0h3m1 0h1m1 0h1m3 0h1m4 0h4m3 0h2m2 0h3m1 0h1m3 0h2m5 0h2m1 0h1M5 35.5h1m4 0h3m1 0h1m1 0h2m1 0h3m1 0h1m1 0h3m1 0h1m2 0h1m4 0h1m1 0h1m2 0h3m2 0h1m2 0h5M0 36.5h2m1 0h1m2 0h2m6 0h1m1 0h1m3 0h9m1 0h2m2 0h6m3 0h1m1 0h1m4 0h4M0 37.5h4m3 0h3m2 0h2m2 0h3m1 0h1m1 0h2m1 0h1m2 0h1m1 0h3m4 0h1m3 0h5m2 0h1m2 0h1m3 0h1M0 38.5h8m1 0h1m1 0h3m4 0h2m4 0h1m1 0h2m1 0h6m1 0h1m1 0h2m5 0h3m2 0h2m2 0h2M0 39.5h2m6 0h7m1 0h1m1 0h1m2 0h1m8 0h1m8 0h1m1 0h1m2 0h2m1 0h3m2 0h1m1 0h2M0 40.5h2m1 0h6m1 0h2m2 0h3m1 0h3m6 0h1m2 0h2m1 0h1m1 0h2m2 0h1m1 0h2m2 0h2m1 0h2m1 0h6M0 41.5h2m1 0h3m2 0h1m1 0h6m2 0h1m3 0h3m2 0h1m7 0h2m1 0h2m1 0h2m1 0h1m2 0h3m5 0h1M1 42.5h1m1 0h4m2 0h2m4 0h2m1 0h2m2 0h3m1 0h1m2 0h2m3 0h4m1 0h1m3 0h1m1 0h5m1 0h5M1 43.5h1m1 0h3m1 0h1m3 0h1m3 0h1m6 0h1m3 0h5m2 0h1m3 0h6m1 0h1m2 0h2m1 0h2m1 0h2m1 0h1M5 44.5h2m1 0h2m1 0h1m4 0h4m1 0h1m1 0h2m2 0h4m1 0h2m1 0h3m1 0h1m1 0h2m2 0h1m2 0h1m1 0h3m3 0h1M2 45.5h1m2 0h1m7 0h5m1 0h1m1 0h4m4 0h1m3 0h1m3 0h1m1 0h1m1 0h2m2 0h1m3 0h2m3 0h3M0 46.5h1m1 0h1m2 0h3m1 0h2m2 0h2m1 0h7m3 0h1m1 0h4m3 0h2m1 0h4m1 0h3m1 0h1m4 0h1m1 0h1M0 47.5h5m3 0h1m1 0h2m1 0h1m3 0h7m1 0h1m1 0h1m1 0h1m3 0h1m1 0h1m3 0h1m2 0h3m6 0h1m1 0h3M6 48.5h1m2 0h1m2 0h2m1 0h1m1 0h1m1 0h2m1 0h1m3 0h5m2 0h1m1 0h3m1 0h1m1 0h1m6 0h5m1 0h1M8 49.5h4m1 0h3m1 0h2m2 0h1m1 0h4m3 0h1m2 0h5m2 0h5m2 0h2m3 0h1m1 0h1m1 0h1M0 50.5h7m3 0h1m1 0h7m1 0h4m1 0h2m1 0h1m1 0h1m2 0h3m1 0h3m2 0h1m2 0h2m1 0h1m1 0h1m1 0h4M0 51.5h1m5 0h1m1 0h2m1 0h2m1 0h1m1 0h1m2 0h3m2 0h1m1 0h1m3 0h5m1 0h10m2 0h1m3 0h1m1 0h2M0 52.5h1m1 0h3m1 0h1m1 0h3m3 0h2m1 0h2m1 0h1m1 0h10m4 0h3m2 0h1m1 0h1m3 0h6m3 0h1M0 53.5h1m1 0h3m1 0h1m1 0h2m3 0h1m1 0h2m1 0h3m3 0h1m1 0h6m1 0h1m1 0h3m5 0h1m1 0h1m3 0h2m2 0h2M0 54.5h1m1 0h3m1 0h1m1 0h1m3 0h1m1 0h1m1 0h1m2 0h6m4 0h2m1 0h4m1 0h3m1 0h3m2 0h3m1 0h3m1 0h1M0 55.5h1m5 0h1m2 0h2m4 0h1m1 0h1m1 0h1m1 0h2m1 0h1m2 0h4m1 0h1m1 0h2m2 0h4m1 0h1m1 0h1m2 0h2m2 0h3M0 56.5h7m1 0h3m4 0h2m2 0h2m2 0h3m3 0h1m1 0h1m2 0h4m5 0h1m1 0h1m2 0h1m1 0h3m2 0h1"/></svg>
